<svg xmlns="http://www.w3.org/2000/svg" width="184.745" height="50.612" viewBox="0 0 184.745 50.612"><defs><style>.a{fill:#7d1416;}.b,.c{fill:#590809;}.c{fill-rule:evenodd;}</style></defs><g transform="translate(-123.755 -7118)"><g transform="translate(188.441 7136.43)"><g transform="translate(0 0)"><path class="a" d="M-205.5-588.467v-14.606h3.044a12.443,12.443,0,0,1,2.37.163,3.472,3.472,0,0,1,1.311.565,3.458,3.458,0,0,1,1.083,1.331,4.129,4.129,0,0,1,.385,1.781,3.231,3.231,0,0,1-.555,1.934,2.892,2.892,0,0,1-1.61,1.09,3.092,3.092,0,0,1,2.046,1.161,3.841,3.841,0,0,1,.752,2.431,4.429,4.429,0,0,1-.32,1.675,4.037,4.037,0,0,1-.885,1.369,3.445,3.445,0,0,1-1.525.858,12.926,12.926,0,0,1-3.05.249Zm1.7-6.843v5.332h1.348a12.981,12.981,0,0,0,2-.109,2.39,2.39,0,0,0,.984-.381,2.126,2.126,0,0,0,.7-.888,2.972,2.972,0,0,0,.259-1.256,2.924,2.924,0,0,0-.31-1.389,2.217,2.217,0,0,0-.9-.919,2.5,2.5,0,0,0-.807-.3,8.333,8.333,0,0,0-1.423-.088h-1.855Zm0-6.251v4.882h1.348a4.7,4.7,0,0,0,2.611-.538,2.065,2.065,0,0,0,.759-1.814,2.392,2.392,0,0,0-.7-1.968,4.5,4.5,0,0,0-2.666-.562Zm16.1,7.5a2.625,2.625,0,0,0-.8-1.859,2.835,2.835,0,0,0-1.978-.654,2.722,2.722,0,0,0-1.9.684,2.721,2.721,0,0,0-.878,1.828Zm1.675,1.267h-7.232v.14a3.348,3.348,0,0,0,.838,2.37,2.841,2.841,0,0,0,2.186.9,2.9,2.9,0,0,0,1.655-.494,4.266,4.266,0,0,0,1.307-1.488l1.185.8a4.792,4.792,0,0,1-1.753,1.866,4.784,4.784,0,0,1-2.475.627,4.406,4.406,0,0,1-3.371-1.376,5.083,5.083,0,0,1-1.287-3.612,4.946,4.946,0,0,1,1.277-3.514,4.3,4.3,0,0,1,3.282-1.365,4.129,4.129,0,0,1,3.207,1.3,5.068,5.068,0,0,1,1.181,3.541v.31Zm2.434,4.331v-15.464h1.593v15.464Zm4.947,0v-15.464h1.593v15.464Zm4.579-13.53a1.109,1.109,0,0,1,.334-.8,1.123,1.123,0,0,1,.817-.334,1.09,1.09,0,0,1,.8.34,1.123,1.123,0,0,1,.334.817,1.081,1.081,0,0,1-.33.8,1.091,1.091,0,0,1-.807.33,1.12,1.12,0,0,1-.817-.33,1.108,1.108,0,0,1-.334-.82Zm.368,13.53V-597.6h1.573v9.131Zm4.865,0V-597.6h1.532v1.41a3.825,3.825,0,0,1,1.416-1.307,4.1,4.1,0,0,1,1.913-.429,3.519,3.519,0,0,1,2.523.858,3.125,3.125,0,0,1,.909,2.387v6.214h-1.593v-5.376a3.086,3.086,0,0,0-.582-2.06,2.262,2.262,0,0,0-1.8-.674,3.1,3.1,0,0,0-1.273.255,2.546,2.546,0,0,0-.953.722,2.227,2.227,0,0,0-.412.817,6.814,6.814,0,0,0-.126,1.6v4.719Zm18.368-4.474a3.59,3.59,0,0,0-.844-2.489,2.8,2.8,0,0,0-2.2-.943,2.81,2.81,0,0,0-2.193.868,3.465,3.465,0,0,0-.79,2.424,3.725,3.725,0,0,0,.793,2.55,2.843,2.843,0,0,0,2.25.9,2.807,2.807,0,0,0,2.189-.872,3.5,3.5,0,0,0,.793-2.438Zm1.512-4.658v9.131h-1.512v-1.655a3.969,3.969,0,0,1-1.4,1.519,3.565,3.565,0,0,1-1.91.524,4.031,4.031,0,0,1-3.166-1.352,5.193,5.193,0,0,1-1.2-3.578,5.242,5.242,0,0,1,1.168-3.585,3.937,3.937,0,0,1,3.122-1.331,3.735,3.735,0,0,1,1.988.514,3.719,3.719,0,0,1,1.362,1.535V-597.6Zm3.367,1.287h-1.675V-597.6h1.675v-3.677H-144v3.677h1.675v1.287H-144v7.844H-145.6v-7.844Zm4.756-5.686a1.109,1.109,0,0,1,.334-.8,1.123,1.123,0,0,1,.817-.334,1.09,1.09,0,0,1,.8.34,1.123,1.123,0,0,1,.334.817,1.082,1.082,0,0,1-.33.8,1.092,1.092,0,0,1-.807.33,1.12,1.12,0,0,1-.817-.33,1.108,1.108,0,0,1-.334-.82Zm.368,13.53V-597.6h1.573v9.131Zm12.751-6.557v6.557h-1.7v-14.606h3.061a11.914,11.914,0,0,1,2.366.17,3.66,3.66,0,0,1,1.318.558,3.294,3.294,0,0,1,1.093,1.365,4.606,4.606,0,0,1,.4,1.924,4.611,4.611,0,0,1-.4,1.927,3.3,3.3,0,0,1-1.093,1.365,3.582,3.582,0,0,1-1.311.568,11.961,11.961,0,0,1-2.373.17h-1.365Zm0-1.573h.878a5.865,5.865,0,0,0,3.006-.524,2.046,2.046,0,0,0,.773-1.829,2.25,2.25,0,0,0-.793-1.961,5.507,5.507,0,0,0-2.986-.569h-.878v4.882Zm13.874,2.533a2.625,2.625,0,0,0-.8-1.859,2.835,2.835,0,0,0-1.978-.654,2.721,2.721,0,0,0-1.9.684,2.72,2.72,0,0,0-.878,1.828Zm1.675,1.267H-119.4v.14a3.347,3.347,0,0,0,.838,2.37,2.84,2.84,0,0,0,2.186.9,2.9,2.9,0,0,0,1.655-.494,4.265,4.265,0,0,0,1.307-1.488l1.185.8a4.8,4.8,0,0,1-1.753,1.866,4.785,4.785,0,0,1-2.475.627,4.406,4.406,0,0,1-3.371-1.376,5.083,5.083,0,0,1-1.287-3.612,4.946,4.946,0,0,1,1.277-3.514,4.3,4.3,0,0,1,3.282-1.365,4.128,4.128,0,0,1,3.207,1.3,5.067,5.067,0,0,1,1.182,3.541v.31Zm2.373,4.331V-597.6h1.392v1.9a4.83,4.83,0,0,1,1.338-1.7,2.878,2.878,0,0,1,1.726-.511,3.1,3.1,0,0,1,.541.044,3.7,3.7,0,0,1,.517.133l-.517,1.416a3.809,3.809,0,0,0-.511-.136,2.433,2.433,0,0,0-.46-.044,2.106,2.106,0,0,0-1.855.892,4.745,4.745,0,0,0-.62,2.686v4.447Zm13.626-5.6a2.625,2.625,0,0,0-.8-1.859,2.835,2.835,0,0,0-1.978-.654,2.721,2.721,0,0,0-1.9.684,2.721,2.721,0,0,0-.879,1.828ZM-94.5-592.8h-7.232v.14a3.347,3.347,0,0,0,.838,2.37,2.84,2.84,0,0,0,2.186.9,2.9,2.9,0,0,0,1.655-.494,4.266,4.266,0,0,0,1.307-1.488l1.185.8a4.793,4.793,0,0,1-1.753,1.866,4.784,4.784,0,0,1-2.475.627,4.406,4.406,0,0,1-3.371-1.376,5.083,5.083,0,0,1-1.287-3.612,4.946,4.946,0,0,1,1.277-3.514,4.3,4.3,0,0,1,3.282-1.365,4.129,4.129,0,0,1,3.207,1.3,5.067,5.067,0,0,1,1.181,3.541v.31Zm1.072,4.331,5.226-7.763h-4.906V-597.6h7.66l-5.226,7.763h5.185v1.369Z" transform="translate(205.504 603.931)"></path></g></g><g transform="translate(123.755 7118)"><g transform="translate(0.151 1.568)"><path class="a" d="M670.227,459.135h-6.91V440.126h6.91Zm-24.748-25.9h-6.91v-21.59h6.91Z" transform="translate(-638.569 -411.649)"></path></g><g transform="translate(0 12.001)"><path class="a" d="M676.483,495.255a6.04,6.04,0,0,1-6.975-2.5l-1.233-1.85-1.067-1.6,2.3-3.448a6.218,6.218,0,1,1,6.975,9.4Zm-20.238-2.5a6.219,6.219,0,1,1-6.979-9.4,6.582,6.582,0,0,1,1.906-.284,5.94,5.94,0,0,1,5.072,2.787l2.3,3.448-2.3,3.45Zm22.328-16.3a13.193,13.193,0,0,0-15.064,5.405l-.633.947-.631-.947a13.428,13.428,0,1,0,0,14.9l.631-.949.633.949c.141.212.286.418.436.618a13.11,13.11,0,0,0,10.593,5.393,13.945,13.945,0,0,0,4.037-.605,13.43,13.43,0,0,0,0-25.707Z" transform="translate(-637.639 -475.842)"></path></g><g transform="translate(24.896 25.399)"><path class="b" d="M796.59,559.993l-4.62,6.9c-.16-.213-.314-.433-.465-.659l-.676-1.012,4.622-6.935,1.138,1.707Z" transform="translate(-790.83 -558.286)"></path></g><g transform="translate(19.839 17.318)"><path class="b" d="M765.111,510.158l-4.33,6.467c-.15-.2-.295-.406-.436-.617l-.634-.949,4.333-6.5,1.067,1.6Z" transform="translate(-759.711 -508.558)"></path></g><g transform="translate(0.234 0)"><path class="c" d="M642.451,402a4.06,4.06,0,0,1,3.371,1.579h-6.743A4.061,4.061,0,0,1,642.451,402Z" transform="translate(-639.079 -402)"></path></g><g transform="translate(25.03 49.054)"><path class="c" d="M794.981,705.4a4.005,4.005,0,0,0,3.326-1.558h-6.652a4.005,4.005,0,0,0,3.326,1.558Z" transform="translate(-791.655 -703.84)"></path></g></g></g></svg>