<svg height="511pt" viewBox="0 0 511.92131 511" width="511pt" xmlns="http://www.w3.org/2000/svg"><path d="m89.75 198.289062c3.332031 3.332032 8.734375 3.332032 12.066406 0l36.027344-36.027343c3.234375-3.351563 3.1875-8.671875-.105469-11.964844-3.289062-3.289063-8.613281-3.335937-11.960937-.101563l-36.027344 36.027344c-3.332031 3.332032-3.332031 8.734375 0 12.066406zm0 0"/><path d="m153.417969 143.144531c2.261719.003907 4.429687-.894531 6.03125-2.492187l7.210937-7.199219c3.335938-3.332031 3.339844-8.738281.007813-12.074219-3.332031-3.339844-8.738281-3.34375-12.074219-.011718l-7.210938 7.210937c-2.4375 2.441406-3.167968 6.109375-1.847656 9.300781 1.320313 3.1875 4.429688 5.265625 7.882813 5.265625zm0 0"/><path d="m486.300781 281.011719h-30.597656l43.398437-25.105469c5.886719-3.394531 10.183594-8.988281 11.945313-15.550781s.839844-13.554688-2.558594-19.4375l-89.804687-155.117188c-7.171875-12.175781-22.816406-16.289062-35.046875-9.21875l-51.5 29.78125-78.308594-78.417969c-10.011719-9.980468-26.203125-9.980468-36.214844 0l-210.183593 210.292969c-4.433594 4.359375-7.078126 10.21875-7.4179692 16.425781-.0507813.625.0703124 1.238282.0703124 1.851563-.0546874 6.71875 2.5937498 13.179687 7.3554688 17.921875l123.5625 123.5625c4.601562 4.660156 10.855469 7.320312 17.40625 7.398438.800781 0 1.601562-.042969 2.398438-.128907 3.964843-.203125 7.820312-1.367187 11.230468-3.394531v103.933594c0 14.140625 11.460938 25.601562 25.601563 25.601562h298.664062c14.140625 0 25.601563-11.460937 25.601563-25.601562v-179.199219c0-14.136719-11.460938-25.597656-25.601563-25.597656zm-202.589843-29.953125-13.746094 29.953125h-82.328125c-8.925781.019531-17.1875 4.703125-21.796875 12.347656l-35.140625-60.699219zm194.058593 47.019531-125.75 94.546875-15.050781 11.265625-140.878906-105.8125zm-298.667969 187.730469v-179.148438l123.179688 92.597656-123.078125 87.039063c-.042969-.160156-.074219-.324219-.101563-.488281zm137.523438-75.792969 10.878906 8.117187c2.714844 2.078126 6.042969 3.203126 9.464844 3.199219 3.363281.011719 6.636719-1.089843 9.308594-3.132812l10.933594-8.214844 119.386718 84.359375h-279.21875zm54.921875-10.800781 123.289063-92.605469v179.199219c0 .164062-.085938.300781-.09375.453125zm-82.800781-118.203125 12.800781-27.835938 13.449219 1.570313c.660156.089844 1.328125.136718 1.996094.136718 6.238281 0 11.867187-3.738281 14.285156-9.492187l5.339844-12.578125 145.570312 13.160156-60.550781 35.039063zm204.9375-51.535157c.078125.128907.078125.28125.144531.410157l-150.1875-13.585938 60.253906-141.976562zm-108.859375-153.90625-61.433594 144.851563-7.40625 17.289063-174.832031-20.992188zm-67.960938 19.625-94.71875 54.863282 19.507813-130.101563.109375.078125zm-93.386719-68.921874-20.207031 134.75-77.925781 45.140624c-1.757812 1.027344-3.378906 2.265626-4.832031 3.6875l-94.78125 14.207032zm-68.269531 339.625c-1.503906 1.476562-3.523437 2.3125-5.628906 2.339843-2.398437.246094-4.773437-.613281-6.460937-2.332031l-123.683594-123.59375 93.183594-13.980469c-.058594 4.511719 1.089843 8.957031 3.320312 12.878907l46.097656 79.640624v38.203126zm0 0"/><path d="m268.898438 315.144531c-4.714844 0-8.535157 3.820313-8.535157 8.53125 0 4.714844 3.820313 8.535157 8.535157 8.535157h51.199218c4.714844 0 8.535156-3.820313 8.535156-8.535157 0-4.710937-3.820312-8.53125-8.535156-8.53125zm0 0"/><path d="m350.75 332.210938h10.238281c4.714844 0 8.535157-3.820313 8.535157-8.535157 0-4.710937-3.820313-8.53125-8.535157-8.53125h-10.238281c-4.714844 0-8.535156 3.820313-8.535156 8.53125 0 4.714844 3.820312 8.535157 8.535156 8.535157zm0 0"/><path d="m253.453125 192.324219c1.5-.003907 2.96875-.402344 4.265625-1.152344l44.273438-25.601563c2.738281-1.472656 4.457031-4.320312 4.488281-7.429687s-1.632813-5.992187-4.34375-7.519531c-2.710938-1.523438-6.035157-1.457032-8.679688.179687l-44.269531 25.640625c-3.335938 1.9375-4.960938 5.867188-3.960938 9.59375.996094 3.722656 4.371094 6.316406 8.226563 6.320313zm0 0"/><path d="m210.675781 208.570312c1.132813 1.960938 3 3.390626 5.1875 3.976563 2.1875.582031 4.515625.273437 6.476563-.863281l8.859375-5.117188c3.921875-2.429687 5.207031-7.53125 2.898437-11.527344-2.308594-3.992187-7.371094-5.429687-11.433594-3.246093l-8.855468 5.121093c-1.964844 1.128907-3.394532 2.992188-3.980469 5.179688-.589844 2.1875-.285156 4.515625.847656 6.476562zm0 0"/></svg>