<svg height="480pt" viewBox="-56 0 480 480.48246" width="480pt" xmlns="http://www.w3.org/2000/svg"><path d="m32.242188 424.484375h48v24c0 17.671875 14.324218 32 32 32h192c17.671874 0 32-14.328125 32-32v-224h16v-16h-16v-112h16v60.6875l-13.65625 13.65625c-3.125 3.121094-3.125 8.1875 0 11.308594l16 16 11.3125-11.308594-10.34375-10.34375 10.34375-10.347656c1.5-1.5 2.34375-3.53125 2.34375-5.652344v-72c0-4.421875-3.582032-8-8-8h-40v-32h-16v32h-8c-4.417969 0-8 3.578125-8 8v120h-22.898438l2.761719-111.152344c10.285156-27.109375 6.851562-57.515625-9.214844-81.648437l-8.105469-12.121094c-1.632812-2.449219-4.476562-3.804688-7.40625-3.5273438-2.929687.2773438-5.472656 2.1367188-6.617187 4.8476558l-5.921875 14c-2.542969 6.027344-5.820313 11.722657-9.75 16.953126-.214844.285156-.410156.589843-.585938.902343l-2.824218 5.0625c-9.902344 17.8125-8.941407 39.679688 2.488281 56.554688l1.960937 110.128906h-29.886718v-200c0-4.421875-3.582032-8-8-8h-64c-4.417969 0-8 3.578125-8 8v200h-48v16h16v32h-40.664063c-21.714844.023437-39.308594 17.621094-39.335937 39.335937v96.664063c0 17.671875 14.324218 32 32 32zm272-328h16v16h-16zm0 32h16v80h-16zm-72.59375-78.851563 2.570312-4.613281c4.558594-6.152343 8.375-12.828125 11.359375-19.882812l.144531-.335938c12.34375 18.652344 15.578125 41.890625 8.796875 63.203125h-2.398437v-24h-16v24h-3.769532c-7.128906-11.730468-7.398437-26.386718-.703124-38.371094zm5.191406 86.402344-.566406-32h15.65625l-.800782 32zm13.898437 16-1.34375 54.488282h-11.296875l-.96875-54.488282zm-122.496093-135.550781h48v16h-16.351563v16h16.351563v16h-11.015626v16h11.015626v16h-16.351563v16h16.351563v16h-11.015626v16h11.015626v16h-16.351563v16h16.351563v32h-48zm-32 400v-192h224v224c0 8.835937-7.164063 16-16 16h-192c-8.835938 0-16-7.164063-16-16zm-16-40h-32v-72h32zm-64-80.664063c.011718-12.882812 10.453124-23.324218 23.335937-23.335937h40.664063v16h-32c-8.835938 0-16 7.160156-16 16v72c0 8.835937 7.164062 16 16 16h32v16h-48c-8.835938 0-16-7.164063-16-16zm0 0"/></svg>