<svg id="Capa_1" enable-background="new 0 0 512.354 512.354" height="512" viewBox="0 0 512.354 512.354" width="512" xmlns="http://www.w3.org/2000/svg"><g><g><g><path d="m495.709 233.529s-58.446 0-123.846 0v-103.268h37.85l-10.837 9.103c-5.604 4.708-9.041 11.317-9.676 18.61-.634 7.292 1.61 14.396 6.318 20.001 5.221 6.215 12.873 9.78 20.995 9.78 6.431 0 12.688-2.281 17.617-6.422l68.445-57.494c6.214-5.22 9.777-12.869 9.777-20.984 0-8.116-3.563-15.765-9.777-20.984l-68.445-57.495c-11.571-9.719-28.893-8.212-38.611 3.357-9.72 11.571-8.213 28.893 3.357 38.612l10.837 9.103h-37.85v-31.951c0-9.169-7.46-16.629-16.63-16.629h-338.587c-9.17 0-16.63 7.46-16.63 16.629v151.571c0 4.142 3.357 7.5 7.5 7.5s7.5-3.358 7.5-7.5v-151.571c0-.898.731-1.629 1.63-1.629h.261l120.37 127.278-119.747 94.666h-.885c-.898 0-1.63-.731-1.63-1.629v-32.231c0-4.142-3.357-7.5-7.5-7.5s-7.5 3.358-7.5 7.5v32.231c0 9.169 7.46 16.629 16.63 16.629h123.846v103.268h-37.85l10.837-9.103c5.605-4.708 9.041-11.318 9.676-18.611.634-7.292-1.61-14.396-6.318-20-9.719-11.57-27.04-13.076-38.613-3.358l-68.445 57.494c-6.214 5.22-9.778 12.868-9.778 20.984 0 8.115 3.564 15.764 9.778 20.985l68.445 57.494c4.931 4.141 11.188 6.421 17.617 6.421 8.122 0 15.774-3.564 20.995-9.779 4.708-5.605 6.952-12.709 6.318-20.001-.635-7.293-4.071-13.902-9.676-18.61l-10.837-9.103h37.85v31.953c0 9.169 7.46 16.629 16.63 16.629h338.588c9.169 0 16.629-7.459 16.629-16.629v-218.687c.001-9.17-7.459-16.63-16.628-16.63zm-355.218 188.363h-58.438c-3.152 0-5.968 1.971-7.047 4.933s-.19 6.282 2.223 8.31l26.602 22.345c2.538 2.131 4.093 5.123 4.38 8.424s-.729 6.517-2.86 9.054c-2.363 2.813-5.829 4.427-9.509 4.427-2.949 0-5.705-1.005-7.97-2.907l-68.444-57.493c-2.813-2.364-4.427-5.826-4.427-9.5s1.613-7.136 4.427-9.499l68.443-57.493c5.239-4.4 13.081-3.718 17.48 1.52 2.131 2.537 3.146 5.752 2.859 9.053s-1.842 6.293-4.38 8.425l-26.602 22.346c-2.413 2.027-3.302 5.348-2.223 8.31s3.895 4.933 7.047 4.933h58.438v24.812zm289.811-331.443c3.152 0 5.968-1.971 7.047-4.933s.19-6.282-2.223-8.31l-26.602-22.346c-5.238-4.4-5.92-12.241-1.52-17.479 4.399-5.238 12.241-5.918 17.478-1.52l68.445 57.494c2.813 2.363 4.426 5.825 4.426 9.499s-1.613 7.137-4.426 9.5l-68.445 57.493c-2.264 1.902-5.02 2.907-7.969 2.907-3.68 0-7.146-1.614-9.509-4.428-2.132-2.537-3.147-5.752-2.86-9.054s1.842-6.293 4.38-8.424l26.602-22.345c2.413-2.027 3.302-5.348 2.223-8.31s-3.895-4.933-7.047-4.933h-58.438v-24.811zm-75.069-48.582c.898 0 1.63.731 1.63 1.629v190.033c-13.441 0-27.168 0-40.82 0l-81.441-64.384 120.37-127.278zm-317.68 0h296.773l-148.387 156.904zm102.938 208.292v13.653h-98.774l105.907-83.726 28.589 30.23c.209.221.432.429.666.623 2.625 2.174 5.843 3.261 9.061 3.261 3.219 0 6.437-1.087 9.062-3.262.234-.194.456-.402.665-.623l28.589-30.23 67.601 53.443c-71.518 0-134.736 0-134.736 0-9.17.001-16.63 7.461-16.63 16.631zm16.63 220.315c-.898 0-1.63-.731-1.63-1.629v-218.686c0-.898.731-1.629 1.63-1.629h.261l120.369 127.278-119.746 94.667h-.884zm25.071 0 105.906-83.726 28.59 30.231c.209.221.431.429.665.623 2.625 2.174 5.843 3.262 9.061 3.262 3.219 0 6.437-1.087 9.062-3.262.234-.194.456-.402.665-.623l28.589-30.231 105.908 83.726zm315.146-1.629c0 .898-.73 1.629-1.629 1.629h-.885l-119.748-94.667 46.635-49.314c2.846-3.01 2.714-7.756-.296-10.603-3.011-2.846-7.758-2.714-10.603.296l-84.399 89.246-148.385-156.903h296.773l-41.123 43.483c-2.846 3.009-2.714 7.756.296 10.603 3.009 2.845 7.755 2.713 10.603-.296l50.871-53.79h.261c.898 0 1.629.731 1.629 1.629z"/></g></g></g></svg>